<mxfile host="app.diagrams.net" modified="2024-03-26T13:15:03.942Z" agent="Mozilla/5.0 (Windows NT 10.0; Win64; x64) AppleWebKit/537.36 (KHTML, like Gecko) Chrome/121.0.0.0 Safari/537.36 OPR/107.0.0.0" etag="I9Oyz_y4Nuq8YV74ZjSw" version="24.1.0" type="device">
  <diagram name="Página-1" id="ovyUwSWzjlmpZCViaPQW">
    <mxGraphModel dx="1393" dy="766" grid="1" gridSize="10" guides="1" tooltips="1" connect="1" arrows="1" fold="1" page="1" pageScale="1" pageWidth="827" pageHeight="1169" math="0" shadow="0">
      <root>
        <mxCell id="0" />
        <mxCell id="1" parent="0" />
        <mxCell id="XXIgc5LvoKLp9p-qUfDw-2" style="rounded=0;orthogonalLoop=1;jettySize=auto;html=1;endArrow=none;endFill=0;exitX=0.5;exitY=1;exitDx=0;exitDy=0;" edge="1" parent="1" source="XXIgc5LvoKLp9p-qUfDw-1" target="XXIgc5LvoKLp9p-qUfDw-3">
          <mxGeometry relative="1" as="geometry">
            <mxPoint x="190" y="230" as="targetPoint" />
          </mxGeometry>
        </mxCell>
        <mxCell id="XXIgc5LvoKLp9p-qUfDw-29" style="rounded=0;orthogonalLoop=1;jettySize=auto;html=1;entryX=0;entryY=0.5;entryDx=0;entryDy=0;endArrow=none;endFill=0;" edge="1" parent="1" source="XXIgc5LvoKLp9p-qUfDw-1" target="XXIgc5LvoKLp9p-qUfDw-10">
          <mxGeometry relative="1" as="geometry" />
        </mxCell>
        <mxCell id="XXIgc5LvoKLp9p-qUfDw-1" value="CARRO" style="rounded=0;whiteSpace=wrap;html=1;" vertex="1" parent="1">
          <mxGeometry x="180" y="20" width="120" height="60" as="geometry" />
        </mxCell>
        <mxCell id="XXIgc5LvoKLp9p-qUfDw-3" value="&lt;u&gt;Placa&lt;/u&gt;" style="ellipse;whiteSpace=wrap;html=1;" vertex="1" parent="1">
          <mxGeometry x="30" y="130" width="120" height="80" as="geometry" />
        </mxCell>
        <mxCell id="XXIgc5LvoKLp9p-qUfDw-4" value="Modelo" style="ellipse;whiteSpace=wrap;html=1;" vertex="1" parent="1">
          <mxGeometry x="100" y="210" width="120" height="80" as="geometry" />
        </mxCell>
        <mxCell id="XXIgc5LvoKLp9p-qUfDw-5" value="Marca" style="ellipse;whiteSpace=wrap;html=1;" vertex="1" parent="1">
          <mxGeometry x="240" y="210" width="120" height="80" as="geometry" />
        </mxCell>
        <mxCell id="XXIgc5LvoKLp9p-qUfDw-6" value="Ano" style="ellipse;whiteSpace=wrap;html=1;" vertex="1" parent="1">
          <mxGeometry x="320" y="130" width="120" height="80" as="geometry" />
        </mxCell>
        <mxCell id="XXIgc5LvoKLp9p-qUfDw-7" style="rounded=0;orthogonalLoop=1;jettySize=auto;html=1;endArrow=none;endFill=0;exitX=0.5;exitY=1;exitDx=0;exitDy=0;entryX=0.5;entryY=0;entryDx=0;entryDy=0;" edge="1" parent="1" source="XXIgc5LvoKLp9p-qUfDw-1" target="XXIgc5LvoKLp9p-qUfDw-4">
          <mxGeometry relative="1" as="geometry">
            <mxPoint x="240" y="205" as="targetPoint" />
            <mxPoint x="304" y="130" as="sourcePoint" />
          </mxGeometry>
        </mxCell>
        <mxCell id="XXIgc5LvoKLp9p-qUfDw-8" style="rounded=0;orthogonalLoop=1;jettySize=auto;html=1;endArrow=none;endFill=0;exitX=0.5;exitY=1;exitDx=0;exitDy=0;entryX=0.5;entryY=0;entryDx=0;entryDy=0;" edge="1" parent="1" source="XXIgc5LvoKLp9p-qUfDw-1" target="XXIgc5LvoKLp9p-qUfDw-5">
          <mxGeometry relative="1" as="geometry">
            <mxPoint x="278" y="225" as="targetPoint" />
            <mxPoint x="342" y="150" as="sourcePoint" />
          </mxGeometry>
        </mxCell>
        <mxCell id="XXIgc5LvoKLp9p-qUfDw-9" style="rounded=0;orthogonalLoop=1;jettySize=auto;html=1;endArrow=none;endFill=0;entryX=0.5;entryY=0;entryDx=0;entryDy=0;exitX=0.5;exitY=1;exitDx=0;exitDy=0;" edge="1" parent="1" source="XXIgc5LvoKLp9p-qUfDw-1" target="XXIgc5LvoKLp9p-qUfDw-6">
          <mxGeometry relative="1" as="geometry">
            <mxPoint x="288" y="235" as="targetPoint" />
            <mxPoint x="230" y="110" as="sourcePoint" />
          </mxGeometry>
        </mxCell>
        <mxCell id="XXIgc5LvoKLp9p-qUfDw-30" style="rounded=0;orthogonalLoop=1;jettySize=auto;html=1;entryX=0;entryY=0.5;entryDx=0;entryDy=0;endArrow=none;endFill=0;" edge="1" parent="1" source="XXIgc5LvoKLp9p-qUfDw-10" target="XXIgc5LvoKLp9p-qUfDw-20">
          <mxGeometry relative="1" as="geometry" />
        </mxCell>
        <mxCell id="XXIgc5LvoKLp9p-qUfDw-10" value="MANUTENÇÃO" style="rounded=0;whiteSpace=wrap;html=1;" vertex="1" parent="1">
          <mxGeometry x="610" y="20" width="120" height="60" as="geometry" />
        </mxCell>
        <mxCell id="XXIgc5LvoKLp9p-qUfDw-11" value="&lt;u&gt;ID_Manutenção&lt;/u&gt;" style="ellipse;whiteSpace=wrap;html=1;" vertex="1" parent="1">
          <mxGeometry x="470" y="130" width="120" height="80" as="geometry" />
        </mxCell>
        <mxCell id="XXIgc5LvoKLp9p-qUfDw-12" style="rounded=0;orthogonalLoop=1;jettySize=auto;html=1;endArrow=none;endFill=0;exitX=0.5;exitY=1;exitDx=0;exitDy=0;entryX=0.5;entryY=0;entryDx=0;entryDy=0;" edge="1" parent="1" source="XXIgc5LvoKLp9p-qUfDw-10" target="XXIgc5LvoKLp9p-qUfDw-11">
          <mxGeometry relative="1" as="geometry">
            <mxPoint x="540" y="120" as="targetPoint" />
            <mxPoint x="645" y="67" as="sourcePoint" />
          </mxGeometry>
        </mxCell>
        <mxCell id="XXIgc5LvoKLp9p-qUfDw-14" value="Inicio_Manutenção" style="ellipse;whiteSpace=wrap;html=1;" vertex="1" parent="1">
          <mxGeometry x="540" y="210" width="120" height="80" as="geometry" />
        </mxCell>
        <mxCell id="XXIgc5LvoKLp9p-qUfDw-15" value="Fim&lt;span style=&quot;background-color: initial;&quot;&gt;_Manutenção&lt;/span&gt;" style="ellipse;whiteSpace=wrap;html=1;" vertex="1" parent="1">
          <mxGeometry x="680" y="210" width="120" height="80" as="geometry" />
        </mxCell>
        <mxCell id="XXIgc5LvoKLp9p-qUfDw-16" value="Descrição" style="ellipse;whiteSpace=wrap;html=1;" vertex="1" parent="1">
          <mxGeometry x="750" y="130" width="120" height="80" as="geometry" />
        </mxCell>
        <mxCell id="XXIgc5LvoKLp9p-qUfDw-17" style="rounded=0;orthogonalLoop=1;jettySize=auto;html=1;endArrow=none;endFill=0;exitX=0.5;exitY=1;exitDx=0;exitDy=0;entryX=0.5;entryY=0;entryDx=0;entryDy=0;" edge="1" parent="1" source="XXIgc5LvoKLp9p-qUfDw-10" target="XXIgc5LvoKLp9p-qUfDw-14">
          <mxGeometry relative="1" as="geometry">
            <mxPoint x="530" y="180" as="targetPoint" />
            <mxPoint x="650" y="90" as="sourcePoint" />
          </mxGeometry>
        </mxCell>
        <mxCell id="XXIgc5LvoKLp9p-qUfDw-18" style="rounded=0;orthogonalLoop=1;jettySize=auto;html=1;endArrow=none;endFill=0;exitX=0.5;exitY=1;exitDx=0;exitDy=0;entryX=0.5;entryY=0;entryDx=0;entryDy=0;" edge="1" parent="1" source="XXIgc5LvoKLp9p-qUfDw-10" target="XXIgc5LvoKLp9p-qUfDw-15">
          <mxGeometry relative="1" as="geometry">
            <mxPoint x="540" y="190" as="targetPoint" />
            <mxPoint x="660" y="100" as="sourcePoint" />
          </mxGeometry>
        </mxCell>
        <mxCell id="XXIgc5LvoKLp9p-qUfDw-19" style="rounded=0;orthogonalLoop=1;jettySize=auto;html=1;endArrow=none;endFill=0;exitX=0.5;exitY=1;exitDx=0;exitDy=0;entryX=0.5;entryY=0;entryDx=0;entryDy=0;" edge="1" parent="1" source="XXIgc5LvoKLp9p-qUfDw-10" target="XXIgc5LvoKLp9p-qUfDw-16">
          <mxGeometry relative="1" as="geometry">
            <mxPoint x="550" y="200" as="targetPoint" />
            <mxPoint x="670" y="110" as="sourcePoint" />
          </mxGeometry>
        </mxCell>
        <mxCell id="XXIgc5LvoKLp9p-qUfDw-20" value="FUNCIONÁRIO" style="rounded=0;whiteSpace=wrap;html=1;" vertex="1" parent="1">
          <mxGeometry x="1030" y="20" width="120" height="60" as="geometry" />
        </mxCell>
        <mxCell id="XXIgc5LvoKLp9p-qUfDw-21" value="&lt;u&gt;Matricula&lt;/u&gt;" style="ellipse;whiteSpace=wrap;html=1;" vertex="1" parent="1">
          <mxGeometry x="880" y="130" width="120" height="80" as="geometry" />
        </mxCell>
        <mxCell id="XXIgc5LvoKLp9p-qUfDw-22" value="Funcinário" style="ellipse;whiteSpace=wrap;html=1;" vertex="1" parent="1">
          <mxGeometry x="950" y="210" width="120" height="80" as="geometry" />
        </mxCell>
        <mxCell id="XXIgc5LvoKLp9p-qUfDw-23" value="Telefone" style="ellipse;whiteSpace=wrap;html=1;" vertex="1" parent="1">
          <mxGeometry x="1090" y="210" width="120" height="80" as="geometry" />
        </mxCell>
        <mxCell id="XXIgc5LvoKLp9p-qUfDw-25" style="rounded=0;orthogonalLoop=1;jettySize=auto;html=1;endArrow=none;endFill=0;exitX=0.5;exitY=1;exitDx=0;exitDy=0;entryX=0.5;entryY=0;entryDx=0;entryDy=0;" edge="1" parent="1" source="XXIgc5LvoKLp9p-qUfDw-20" target="XXIgc5LvoKLp9p-qUfDw-21">
          <mxGeometry relative="1" as="geometry">
            <mxPoint x="1090" y="150" as="targetPoint" />
            <mxPoint x="950" y="100" as="sourcePoint" />
          </mxGeometry>
        </mxCell>
        <mxCell id="XXIgc5LvoKLp9p-qUfDw-26" style="rounded=0;orthogonalLoop=1;jettySize=auto;html=1;endArrow=none;endFill=0;entryX=0.5;entryY=0;entryDx=0;entryDy=0;exitX=0.5;exitY=1;exitDx=0;exitDy=0;" edge="1" parent="1" source="XXIgc5LvoKLp9p-qUfDw-20" target="XXIgc5LvoKLp9p-qUfDw-22">
          <mxGeometry relative="1" as="geometry">
            <mxPoint x="980" y="140" as="targetPoint" />
            <mxPoint x="1080" y="120" as="sourcePoint" />
          </mxGeometry>
        </mxCell>
        <mxCell id="XXIgc5LvoKLp9p-qUfDw-27" style="rounded=0;orthogonalLoop=1;jettySize=auto;html=1;endArrow=none;endFill=0;entryX=0.5;entryY=0;entryDx=0;entryDy=0;exitX=0.5;exitY=1;exitDx=0;exitDy=0;" edge="1" parent="1" source="XXIgc5LvoKLp9p-qUfDw-20" target="XXIgc5LvoKLp9p-qUfDw-23">
          <mxGeometry relative="1" as="geometry">
            <mxPoint x="1070" y="210" as="targetPoint" />
            <mxPoint x="1070" y="90" as="sourcePoint" />
          </mxGeometry>
        </mxCell>
        <mxCell id="XXIgc5LvoKLp9p-qUfDw-28" style="rounded=0;orthogonalLoop=1;jettySize=auto;html=1;endArrow=none;endFill=0;entryX=0.5;entryY=0;entryDx=0;entryDy=0;exitX=0.5;exitY=1;exitDx=0;exitDy=0;" edge="1" parent="1" source="XXIgc5LvoKLp9p-qUfDw-20" target="XXIgc5LvoKLp9p-qUfDw-38">
          <mxGeometry relative="1" as="geometry">
            <mxPoint x="1230" y="130" as="targetPoint" />
            <mxPoint x="1100" y="90" as="sourcePoint" />
          </mxGeometry>
        </mxCell>
        <mxCell id="XXIgc5LvoKLp9p-qUfDw-31" value="1" style="text;html=1;align=center;verticalAlign=middle;resizable=0;points=[];autosize=1;strokeColor=none;fillColor=none;" vertex="1" parent="1">
          <mxGeometry x="296" y="25" width="30" height="30" as="geometry" />
        </mxCell>
        <mxCell id="XXIgc5LvoKLp9p-qUfDw-32" value="N" style="text;html=1;align=center;verticalAlign=middle;resizable=0;points=[];autosize=1;strokeColor=none;fillColor=none;" vertex="1" parent="1">
          <mxGeometry x="583" y="26" width="30" height="30" as="geometry" />
        </mxCell>
        <mxCell id="XXIgc5LvoKLp9p-qUfDw-33" value="N" style="text;html=1;align=center;verticalAlign=middle;resizable=0;points=[];autosize=1;strokeColor=none;fillColor=none;" vertex="1" parent="1">
          <mxGeometry x="725" y="24" width="30" height="30" as="geometry" />
        </mxCell>
        <mxCell id="XXIgc5LvoKLp9p-qUfDw-34" value="1" style="text;html=1;align=center;verticalAlign=middle;resizable=0;points=[];autosize=1;strokeColor=none;fillColor=none;" vertex="1" parent="1">
          <mxGeometry x="1004" y="25" width="30" height="30" as="geometry" />
        </mxCell>
        <mxCell id="XXIgc5LvoKLp9p-qUfDw-35" value="contém" style="rhombus;whiteSpace=wrap;html=1;" vertex="1" parent="1">
          <mxGeometry x="414" y="10" width="80" height="80" as="geometry" />
        </mxCell>
        <mxCell id="XXIgc5LvoKLp9p-qUfDw-36" value="contém" style="rhombus;whiteSpace=wrap;html=1;" vertex="1" parent="1">
          <mxGeometry x="850" y="10" width="80" height="80" as="geometry" />
        </mxCell>
        <mxCell id="XXIgc5LvoKLp9p-qUfDw-38" value="&#xa;&lt;span style=&quot;color: rgb(0, 0, 0); font-family: Helvetica; font-size: 12px; font-style: normal; font-variant-ligatures: normal; font-variant-caps: normal; font-weight: 400; letter-spacing: normal; orphans: 2; text-align: center; text-indent: 0px; text-transform: none; widows: 2; word-spacing: 0px; -webkit-text-stroke-width: 0px; white-space: normal; background-color: rgb(251, 251, 251); text-decoration-thickness: initial; text-decoration-style: initial; text-decoration-color: initial; display: inline !important; float: none;&quot;&gt;Telefone_secundário&lt;/span&gt;&#xa;&#xa;" style="ellipse;shape=doubleEllipse;margin=3;whiteSpace=wrap;html=1;align=center;" vertex="1" parent="1">
          <mxGeometry x="1150" y="135" width="130" height="70" as="geometry" />
        </mxCell>
      </root>
    </mxGraphModel>
  </diagram>
</mxfile>
